<svg xmlns="http://www.w3.org/2000/svg" viewBox="0 0 800 600" width="800" height="600">
  <defs>
    <linearGradient id="tealGlow" x1="0%" y1="0%" x2="100%" y2="100%">
      <stop offset="0%" style="stop-color:#00d4aa;stop-opacity:0.3"/>
      <stop offset="100%" style="stop-color:#00d4aa;stop-opacity:0"/>
    </linearGradient>
    <linearGradient id="purpleGlow" x1="0%" y1="0%" x2="100%" y2="100%">
      <stop offset="0%" style="stop-color:#7c3aed;stop-opacity:0.3"/>
      <stop offset="100%" style="stop-color:#7c3aed;stop-opacity:0"/>
    </linearGradient>
    <filter id="glow">
      <feGaussianBlur stdDeviation="2" result="coloredBlur"/>
      <feMerge>
        <feMergeNode in="coloredBlur"/>
        <feMergeNode in="SourceGraphic"/>
      </feMerge>
    </filter>
  </defs>
  
  <!-- Background -->
  <rect width="800" height="600" fill="#0f1419"/>
  
  <!-- Title -->
  <text x="400" y="35" text-anchor="middle" fill="#e4e4e7" font-family="system-ui, -apple-system, sans-serif" font-size="18" font-weight="600">REMEMBRA Architecture</text>
  
  <!-- USER INTERFACE Layer -->
  <rect x="40" y="55" width="720" height="70" rx="8" fill="#1a1f2e" stroke="#00d4aa" stroke-width="1.5"/>
  <text x="400" y="80" text-anchor="middle" fill="#00d4aa" font-family="system-ui, sans-serif" font-size="13" font-weight="600">USER INTERFACE</text>
  <rect x="80" y="95" width="140" height="22" rx="4" fill="#252b3b"/>
  <text x="150" y="110" text-anchor="middle" fill="#a1a1aa" font-family="monospace" font-size="10">Web Dashboard</text>
  <rect x="240" y="95" width="100" height="22" rx="4" fill="#252b3b"/>
  <text x="290" y="110" text-anchor="middle" fill="#a1a1aa" font-family="monospace" font-size="10">CLI</text>
  <rect x="360" y="95" width="100" height="22" rx="4" fill="#252b3b"/>
  <text x="410" y="110" text-anchor="middle" fill="#a1a1aa" font-family="monospace" font-size="10">HTTP API</text>
  <rect x="480" y="95" width="140" height="22" rx="4" fill="#252b3b"/>
  <text x="550" y="110" text-anchor="middle" fill="#a1a1aa" font-family="monospace" font-size="10">Ollama Proxy</text>
  
  <!-- Arrow down -->
  <path d="M400 130 L400 150 M392 142 L400 150 L408 142" stroke="#00d4aa" stroke-width="2" fill="none" filter="url(#glow)"/>
  
  <!-- CHAT ENGINE Layer -->
  <rect x="40" y="155" width="720" height="120" rx="8" fill="#1a1f2e" stroke="#7c3aed" stroke-width="1.5"/>
  <text x="400" y="180" text-anchor="middle" fill="#7c3aed" font-family="system-ui, sans-serif" font-size="13" font-weight="600">CHAT ENGINE</text>
  
  <!-- Chat Engine components -->
  <rect x="70" y="195" width="150" height="60" rx="6" fill="#252b3b" stroke="#3f3f46" stroke-width="1"/>
  <text x="145" y="220" text-anchor="middle" fill="#e4e4e7" font-family="system-ui, sans-serif" font-size="11" font-weight="500">Prompt Builder</text>
  <text x="145" y="238" text-anchor="middle" fill="#71717a" font-family="monospace" font-size="9">context + memory</text>
  
  <rect x="250" y="195" width="150" height="60" rx="6" fill="#252b3b" stroke="#3f3f46" stroke-width="1"/>
  <text x="325" y="220" text-anchor="middle" fill="#e4e4e7" font-family="system-ui, sans-serif" font-size="11" font-weight="500">LLM Provider</text>
  <text x="325" y="238" text-anchor="middle" fill="#71717a" font-family="monospace" font-size="9">Ollama</text>
  
  <rect x="430" y="195" width="150" height="60" rx="6" fill="#252b3b" stroke="#3f3f46" stroke-width="1"/>
  <text x="505" y="220" text-anchor="middle" fill="#e4e4e7" font-family="system-ui, sans-serif" font-size="11" font-weight="500">Reflector</text>
  <text x="505" y="238" text-anchor="middle" fill="#71717a" font-family="monospace" font-size="9">proposes memories</text>
  
  <rect x="610" y="195" width="120" height="60" rx="6" fill="#252b3b" stroke="#00d4aa" stroke-width="1.5"/>
  <text x="670" y="220" text-anchor="middle" fill="#00d4aa" font-family="system-ui, sans-serif" font-size="11" font-weight="600">Governor</text>
  <text x="670" y="238" text-anchor="middle" fill="#71717a" font-family="monospace" font-size="9">approves</text>
  
  <!-- Arrows between chat engine components -->
  <path d="M220 225 L245 225" stroke="#52525b" stroke-width="1.5" marker-end="url(#arrowhead)"/>
  <path d="M400 225 L425 225" stroke="#52525b" stroke-width="1.5"/>
  <path d="M580 225 L605 225" stroke="#00d4aa" stroke-width="1.5"/>
  
  <!-- Arrow down -->
  <path d="M400 280 L400 300 M392 292 L400 300 L408 292" stroke="#7c3aed" stroke-width="2" fill="none" filter="url(#glow)"/>
  
  <!-- PERSISTENCE Layer -->
  <rect x="40" y="305" width="720" height="100" rx="8" fill="#1a1f2e" stroke="#3b82f6" stroke-width="1.5"/>
  <text x="400" y="330" text-anchor="middle" fill="#3b82f6" font-family="system-ui, sans-serif" font-size="13" font-weight="600">PERSISTENCE LAYER</text>
  
  <!-- Persistence components -->
  <rect x="100" y="345" width="160" height="45" rx="6" fill="#252b3b" stroke="#3f3f46" stroke-width="1"/>
  <text x="180" y="367" text-anchor="middle" fill="#e4e4e7" font-family="system-ui, sans-serif" font-size="11" font-weight="500">Memory Store</text>
  <text x="180" y="382" text-anchor="middle" fill="#71717a" font-family="monospace" font-size="9">SQLite</text>
  
  <rect x="320" y="345" width="160" height="45" rx="6" fill="#252b3b" stroke="#3f3f46" stroke-width="1"/>
  <text x="400" y="367" text-anchor="middle" fill="#e4e4e7" font-family="system-ui, sans-serif" font-size="11" font-weight="500">Message History</text>
  <text x="400" y="382" text-anchor="middle" fill="#71717a" font-family="monospace" font-size="9">conversations</text>
  
  <rect x="540" y="345" width="160" height="45" rx="6" fill="#252b3b" stroke="#3f3f46" stroke-width="1"/>
  <text x="620" y="367" text-anchor="middle" fill="#e4e4e7" font-family="system-ui, sans-serif" font-size="11" font-weight="500">Event Log</text>
  <text x="620" y="382" text-anchor="middle" fill="#71717a" font-family="monospace" font-size="9">audit trail</text>
  
  <!-- Arrow down -->
  <path d="M400 410 L400 430 M392 422 L400 430 L408 422" stroke="#3b82f6" stroke-width="2" fill="none" filter="url(#glow)"/>
  
  <!-- BACKGROUND PROCESSES Layer -->
  <rect x="40" y="435" width="720" height="100" rx="8" fill="#1a1f2e" stroke="#f59e0b" stroke-width="1.5"/>
  <text x="400" y="460" text-anchor="middle" fill="#f59e0b" font-family="system-ui, sans-serif" font-size="13" font-weight="600">BACKGROUND PROCESSES</text>
  
  <!-- Background process components -->
  <rect x="100" y="475" width="160" height="45" rx="6" fill="#252b3b" stroke="#3f3f46" stroke-width="1"/>
  <text x="180" y="497" text-anchor="middle" fill="#e4e4e7" font-family="system-ui, sans-serif" font-size="11" font-weight="500">Idle Thinker</text>
  <text x="180" y="512" text-anchor="middle" fill="#71717a" font-family="monospace" font-size="9">reflections</text>
  
  <rect x="320" y="475" width="160" height="45" rx="6" fill="#252b3b" stroke="#3f3f46" stroke-width="1"/>
  <text x="400" y="497" text-anchor="middle" fill="#e4e4e7" font-family="system-ui, sans-serif" font-size="11" font-weight="500">Episode Compactor</text>
  <text x="400" y="512" text-anchor="middle" fill="#71717a" font-family="monospace" font-size="9">summaries</text>
  
  <rect x="540" y="475" width="160" height="45" rx="6" fill="#252b3b" stroke="#3f3f46" stroke-width="1"/>
  <text x="620" y="497" text-anchor="middle" fill="#e4e4e7" font-family="system-ui, sans-serif" font-size="11" font-weight="500">Memory Decay</text>
  <text x="620" y="512" text-anchor="middle" fill="#71717a" font-family="monospace" font-size="9">confidence fade</text>
  
  <!-- Decorative elements -->
  <circle cx="30" cy="90" r="3" fill="#00d4aa" opacity="0.5"/>
  <circle cx="770" cy="225" r="3" fill="#7c3aed" opacity="0.5"/>
  <circle cx="30" cy="355" r="3" fill="#3b82f6" opacity="0.5"/>
  <circle cx="770" cy="495" r="3" fill="#f59e0b" opacity="0.5"/>
  
  <!-- Version tag -->
  <text x="760" y="585" text-anchor="end" fill="#52525b" font-family="monospace" font-size="10">REMEMBRA v0.1</text>
</svg>
